<mxfile host="app.diagrams.net" modified="2023-02-20T15:53:39.283Z" agent="5.0 (Windows NT 10.0; Win64; x64) AppleWebKit/537.36 (KHTML, like Gecko) Chrome/110.0.0.0 Safari/537.36 Edg/110.0.1587.50" etag="Vh3NnFEcgcSMyPt3i5uh" version="20.8.20" type="github">
  <diagram name="Page-1" id="MUXnBNhN9VkQVHKYAzyM">
    <mxGraphModel dx="1290" dy="1673" grid="1" gridSize="10" guides="1" tooltips="1" connect="1" arrows="1" fold="1" page="1" pageScale="1" pageWidth="850" pageHeight="1100" math="0" shadow="0">
      <root>
        <mxCell id="0" />
        <mxCell id="1" parent="0" />
        <mxCell id="-NYDk9M5i8-_B_oI9l0L-1" value="&lt;font color=&quot;#9933ff&quot;&gt;&lt;b&gt;AWS&lt;/b&gt;&lt;/font&gt;" style="sketch=0;outlineConnect=0;gradientColor=none;html=1;whiteSpace=wrap;fontSize=12;fontStyle=0;shape=mxgraph.aws4.group;grIcon=mxgraph.aws4.group_aws_cloud;strokeColor=#6332B8;fillColor=none;verticalAlign=top;align=left;spacingLeft=30;fontColor=#AAB7B8;dashed=0;" vertex="1" parent="1">
          <mxGeometry x="190" y="40" width="610" height="460" as="geometry" />
        </mxCell>
        <mxCell id="-NYDk9M5i8-_B_oI9l0L-2" value="&lt;b&gt;&lt;font color=&quot;#1e966e&quot;&gt;Region&lt;/font&gt;&lt;/b&gt;" style="sketch=0;outlineConnect=0;gradientColor=none;html=1;whiteSpace=wrap;fontSize=12;fontStyle=0;shape=mxgraph.aws4.group;grIcon=mxgraph.aws4.group_region;strokeColor=#108496;fillColor=none;verticalAlign=top;align=left;spacingLeft=30;fontColor=#879196;dashed=1;" vertex="1" parent="1">
          <mxGeometry x="240" y="80" width="520" height="400" as="geometry" />
        </mxCell>
        <mxCell id="-NYDk9M5i8-_B_oI9l0L-3" value="&lt;b style=&quot;background-color: rgb(255, 255, 255);&quot;&gt;&lt;font color=&quot;#7f00ff&quot;&gt;owncloud-vpc-10.0.0.0/16&lt;/font&gt;&lt;/b&gt;" style="sketch=0;outlineConnect=0;gradientColor=none;html=1;whiteSpace=wrap;fontSize=12;fontStyle=0;shape=mxgraph.aws4.group;grIcon=mxgraph.aws4.group_vpc;strokeColor=#1E966E;fillColor=none;verticalAlign=top;align=left;spacingLeft=30;fontColor=#879196;dashed=0;" vertex="1" parent="1">
          <mxGeometry x="280" y="120" width="440" height="320" as="geometry" />
        </mxCell>
        <mxCell id="-NYDk9M5i8-_B_oI9l0L-4" value="&lt;b&gt;&lt;font color=&quot;#1a1a1a&quot;&gt;Public subnet -10.0.1.0/24&lt;/font&gt;&lt;/b&gt;" style="points=[[0,0],[0.25,0],[0.5,0],[0.75,0],[1,0],[1,0.25],[1,0.5],[1,0.75],[1,1],[0.75,1],[0.5,1],[0.25,1],[0,1],[0,0.75],[0,0.5],[0,0.25]];outlineConnect=0;gradientColor=none;html=1;whiteSpace=wrap;fontSize=12;fontStyle=0;container=1;pointerEvents=0;collapsible=0;recursiveResize=0;shape=mxgraph.aws4.group;grIcon=mxgraph.aws4.group_security_group;grStroke=0;strokeColor=#248814;fillColor=#E9F3E6;verticalAlign=top;align=left;spacingLeft=30;fontColor=#248814;dashed=0;labelBackgroundColor=#FFFFFF;" vertex="1" parent="1">
          <mxGeometry x="440" y="160" width="240" height="130" as="geometry" />
        </mxCell>
        <mxCell id="-NYDk9M5i8-_B_oI9l0L-6" value="&lt;b&gt;App Server&lt;/b&gt;" style="rounded=0;whiteSpace=wrap;html=1;labelBackgroundColor=#FFFFFF;strokeColor=#1E966E;fontColor=#1A1A1A;" vertex="1" parent="-NYDk9M5i8-_B_oI9l0L-4">
          <mxGeometry x="150" y="90" width="85" height="20" as="geometry" />
        </mxCell>
        <mxCell id="-NYDk9M5i8-_B_oI9l0L-28" style="edgeStyle=orthogonalEdgeStyle;rounded=0;orthogonalLoop=1;jettySize=auto;html=1;fontColor=#1A1A1A;" edge="1" parent="-NYDk9M5i8-_B_oI9l0L-4" source="-NYDk9M5i8-_B_oI9l0L-7">
          <mxGeometry relative="1" as="geometry">
            <mxPoint x="-90" y="75" as="targetPoint" />
          </mxGeometry>
        </mxCell>
        <mxCell id="-NYDk9M5i8-_B_oI9l0L-7" value="" style="sketch=0;outlineConnect=0;fontColor=#232F3E;gradientColor=none;fillColor=#4D27AA;strokeColor=none;dashed=0;verticalLabelPosition=bottom;verticalAlign=top;align=center;html=1;fontSize=12;fontStyle=0;aspect=fixed;pointerEvents=1;shape=mxgraph.aws4.nat_gateway;labelBackgroundColor=#FFFFFF;" vertex="1" parent="-NYDk9M5i8-_B_oI9l0L-4">
          <mxGeometry x="20" y="50" width="50" height="50" as="geometry" />
        </mxCell>
        <mxCell id="-NYDk9M5i8-_B_oI9l0L-8" value="&lt;b&gt;owncloud-NAT&lt;/b&gt;" style="rounded=0;whiteSpace=wrap;html=1;labelBackgroundColor=#FFFFFF;strokeColor=#1E966E;fontColor=#1A1A1A;" vertex="1" parent="-NYDk9M5i8-_B_oI9l0L-4">
          <mxGeometry x="10" y="100" width="90" height="20" as="geometry" />
        </mxCell>
        <mxCell id="-NYDk9M5i8-_B_oI9l0L-74" style="edgeStyle=orthogonalEdgeStyle;rounded=0;orthogonalLoop=1;jettySize=auto;html=1;entryX=0.5;entryY=0;entryDx=0;entryDy=0;entryPerimeter=0;fontColor=#1A1A1A;" edge="1" parent="1" source="-NYDk9M5i8-_B_oI9l0L-5" target="-NYDk9M5i8-_B_oI9l0L-9">
          <mxGeometry relative="1" as="geometry">
            <Array as="points">
              <mxPoint x="350" y="190" />
            </Array>
          </mxGeometry>
        </mxCell>
        <mxCell id="-NYDk9M5i8-_B_oI9l0L-5" value="" style="aspect=fixed;perimeter=ellipsePerimeter;html=1;align=center;shadow=0;dashed=0;fontColor=#4277BB;labelBackgroundColor=#ffffff;fontSize=12;spacingTop=3;image;image=img/lib/ibm/applications/app_server.svg;strokeColor=#1E966E;" vertex="1" parent="1">
          <mxGeometry x="600" y="190" width="60" height="60" as="geometry" />
        </mxCell>
        <mxCell id="-NYDk9M5i8-_B_oI9l0L-39" style="edgeStyle=orthogonalEdgeStyle;rounded=0;orthogonalLoop=1;jettySize=auto;html=1;entryX=1.016;entryY=0.325;entryDx=0;entryDy=0;entryPerimeter=0;fontColor=#1A1A1A;" edge="1" parent="1" source="-NYDk9M5i8-_B_oI9l0L-9" target="-NYDk9M5i8-_B_oI9l0L-11">
          <mxGeometry relative="1" as="geometry" />
        </mxCell>
        <mxCell id="-NYDk9M5i8-_B_oI9l0L-9" value="" style="outlineConnect=0;dashed=0;verticalLabelPosition=bottom;verticalAlign=top;align=center;html=1;shape=mxgraph.aws3.router;fillColor=#F58536;gradientColor=none;labelBackgroundColor=#FFFFFF;strokeColor=#1E966E;fontColor=#1A1A1A;" vertex="1" parent="1">
          <mxGeometry x="320" y="256" width="60" height="50" as="geometry" />
        </mxCell>
        <mxCell id="-NYDk9M5i8-_B_oI9l0L-10" value="&lt;b&gt;Router&lt;/b&gt;" style="rounded=1;whiteSpace=wrap;html=1;labelBackgroundColor=#FFFFFF;strokeColor=#1E966E;fontColor=#1A1A1A;" vertex="1" parent="1">
          <mxGeometry x="325" y="308" width="50" height="20" as="geometry" />
        </mxCell>
        <mxCell id="-NYDk9M5i8-_B_oI9l0L-15" style="edgeStyle=orthogonalEdgeStyle;rounded=0;orthogonalLoop=1;jettySize=auto;html=1;exitX=0;exitY=0.5;exitDx=0;exitDy=0;exitPerimeter=0;entryX=0.99;entryY=0.355;entryDx=0;entryDy=0;entryPerimeter=0;fontColor=#1A1A1A;" edge="1" parent="1" source="-NYDk9M5i8-_B_oI9l0L-11" target="-NYDk9M5i8-_B_oI9l0L-14">
          <mxGeometry relative="1" as="geometry" />
        </mxCell>
        <mxCell id="-NYDk9M5i8-_B_oI9l0L-11" value="" style="outlineConnect=0;dashed=0;verticalLabelPosition=bottom;verticalAlign=top;align=center;html=1;shape=mxgraph.aws3.internet_gateway;fillColor=#F58536;gradientColor=none;labelBackgroundColor=#FFFFFF;strokeColor=#1E966E;fontColor=#1A1A1A;" vertex="1" parent="1">
          <mxGeometry x="160" y="250" width="50" height="56" as="geometry" />
        </mxCell>
        <mxCell id="-NYDk9M5i8-_B_oI9l0L-14" value="" style="sketch=0;outlineConnect=0;fontColor=#232F3E;gradientColor=none;fillColor=#232F3D;strokeColor=none;dashed=0;verticalLabelPosition=bottom;verticalAlign=top;align=center;html=1;fontSize=12;fontStyle=0;aspect=fixed;pointerEvents=1;shape=mxgraph.aws4.internet_alt22;labelBackgroundColor=#FFFFFF;" vertex="1" parent="1">
          <mxGeometry x="20" y="250" width="78" height="78" as="geometry" />
        </mxCell>
        <mxCell id="-NYDk9M5i8-_B_oI9l0L-16" value="&lt;b&gt;Internet Gateway&lt;/b&gt;" style="rounded=1;whiteSpace=wrap;html=1;labelBackgroundColor=#FFFFFF;strokeColor=#1E966E;fontColor=#1A1A1A;" vertex="1" parent="1">
          <mxGeometry x="137.5" y="306" width="102.5" height="14" as="geometry" />
        </mxCell>
        <mxCell id="-NYDk9M5i8-_B_oI9l0L-17" value="&lt;b&gt;&lt;font color=&quot;#1a1a1a&quot;&gt;Private subnet -10.0.2.0/24&lt;/font&gt;&lt;/b&gt;" style="points=[[0,0],[0.25,0],[0.5,0],[0.75,0],[1,0],[1,0.25],[1,0.5],[1,0.75],[1,1],[0.75,1],[0.5,1],[0.25,1],[0,1],[0,0.75],[0,0.5],[0,0.25]];outlineConnect=0;gradientColor=none;html=1;whiteSpace=wrap;fontSize=12;fontStyle=0;container=1;pointerEvents=0;collapsible=0;recursiveResize=0;shape=mxgraph.aws4.group;grIcon=mxgraph.aws4.group_security_group;grStroke=0;strokeColor=#147EBA;fillColor=#E6F2F8;verticalAlign=top;align=left;spacingLeft=30;fontColor=#147EBA;dashed=0;labelBackgroundColor=#FFFFFF;" vertex="1" parent="1">
          <mxGeometry x="440" y="320" width="240" height="110" as="geometry" />
        </mxCell>
        <mxCell id="-NYDk9M5i8-_B_oI9l0L-19" value="" style="sketch=0;shadow=0;dashed=0;html=1;strokeColor=none;fillColor=#505050;labelPosition=center;verticalLabelPosition=bottom;verticalAlign=top;outlineConnect=0;align=center;shape=mxgraph.office.databases.database_server_blue;labelBackgroundColor=#FFFFFF;fontColor=#1A1A1A;" vertex="1" parent="-NYDk9M5i8-_B_oI9l0L-17">
          <mxGeometry x="50" y="33" width="50" height="57" as="geometry" />
        </mxCell>
        <mxCell id="-NYDk9M5i8-_B_oI9l0L-20" value="owncloud-db" style="rounded=1;whiteSpace=wrap;html=1;labelBackgroundColor=#FFFFFF;strokeColor=#1E966E;fontColor=#1A1A1A;" vertex="1" parent="1">
          <mxGeometry x="480" y="410" width="80" height="20" as="geometry" />
        </mxCell>
        <mxCell id="-NYDk9M5i8-_B_oI9l0L-26" style="edgeStyle=orthogonalEdgeStyle;rounded=0;orthogonalLoop=1;jettySize=auto;html=1;fontColor=#1A1A1A;" edge="1" parent="1" source="-NYDk9M5i8-_B_oI9l0L-19" target="-NYDk9M5i8-_B_oI9l0L-10">
          <mxGeometry relative="1" as="geometry" />
        </mxCell>
        <mxCell id="-NYDk9M5i8-_B_oI9l0L-73" style="edgeStyle=orthogonalEdgeStyle;rounded=0;orthogonalLoop=1;jettySize=auto;html=1;fontColor=#1A1A1A;exitX=0.114;exitY=0.438;exitDx=0;exitDy=0;exitPerimeter=0;" edge="1" parent="1" source="-NYDk9M5i8-_B_oI9l0L-3" target="-NYDk9M5i8-_B_oI9l0L-63">
          <mxGeometry relative="1" as="geometry" />
        </mxCell>
        <mxCell id="-NYDk9M5i8-_B_oI9l0L-63" value="" style="shape=image;verticalLabelPosition=bottom;labelBackgroundColor=default;verticalAlign=top;aspect=fixed;imageAspect=0;image=data:image/png,iVBORw0KGgoAAAANSUhEUgAAALoAAABuCAYAAACQoQnIAAAAAXNSR0IArs4c6QAAAARnQU1BAACxjwv8YQUAAAAJcEhZcwAAEnQAABJ0Ad5mH3gAAA14SURBVHhe7Z29buPKFceP75vcgNpivU9A9TeQFwG22tZII5UycuNOpTsngVRKTeDWlYFgJSS99QT2FqaQPIpyDueDQ3JIDilSpMjzAwjZ1JDz9efM4ZDn6OqIgMH7+ztcX1/L/5i24H44jWT7/SI/GabXsNCZQcBCZwYBC50ZBCx0ZhCw0JlBwEJnBgELnRkEV29vb7EHRn/651/kX9n892//Dj//8Nc/hp82OA2nyaLpNGo/PTRS/EJPj8yNYfqCqevUKwDq6lBXBcNcGjYNs43ODAIWOjMIWOjMIGChM4MgJXQy4Lt9I3qA1fgKrq6uYLaTu2wcVjDGNFdXY1gd5D6mJi6vD84you9molHi2xjG2Epnq//JjR51brIes4u4krLKb2zj1fn648ykhE5LM3mL9PWxh/3mBkYX37h72NyNYNyg2PVAkTt8MgqbVXJeG326BVq2py1YTsW+/R08nqP/vDm8hnm/wtyT+yriLwNZjwC2uhqP0G0ZejB/FW1Pmyq32SfH1zmm6iet3Yx682+g2lqQYfftZtnT6scOVrOxnnrHs5zZIcN0Oaxmcr/4brYrMzJ7MPkWr4XigOUex0wFMnFMU82lviLNzUZ+hzNg+J1xQLz81Aanm4Ppsue0bZk+kDRRZhObVdKS0A+wWz2A6D8fPo/CP0qzubuBu81e/oej6uYORjHV5HNYjWF0t0HjQ4FmyM1tCRsehfgiVeh/BlWN8Lyozn10YoRMHDTVSpSvCDJp4uWnNjjVHNzBY6rs2W1btg+aKXMx5xW6GpGuRnBzJ6s6XVQ3JfwlbAMx7QZLX+zbPDgKFTtUlkGbIsEW1Gny2KNNruqBfYb4sHxS077lvJXKRwhzI2VmrCd0NcGDylu2AZU/TLp/hh+VVTOB++0WAnXOsOyyAG8faTGW6YPGylxMa6YL+D72GwqBOq0i08UcJvIi8eYLaQrt4WcQ/pHP4QPewj+msFBXmjdBYZW14akexjG7FzlTGedFSpeviOCnHBX3cDeSZsDoRuZ9Wh4eTk2Pt5E5QiNwFqX6oMEyF9HazegRBbVWLdQGutHLo0ZqMYKRudOjtXq6lyHxJW2XCycl9C48MNq8yJuTA97oiLnOyuZhBeLe0bT5p/DNZZIYfcaxmNjAg1Ip5TeeOYvWmz9JUwdHKLV0ZDsvcsgpn2t9Y+h8DDPA2CpPlGoA8KewlefSpouFUn3QVJldwAwaB21MehX4iCO63GMHR0iRzrb5y2MgUh1RXPY0tKk8guURGxX3+Uds1PT/iC5XbIu+jxPliyO63Idsp6nj7OcVm3msW30t6WQds/OZHvNbOqdPdDtZtlP7ADmlzK78+vtv4WaSGtHP98AoDY2Q26m45kNoVFE3Kynkd7HkeBNVYliYrGkd3JejDIH29vKpnI0+uU+N6uF5cRQ0ioanFvckrzG73a2+4cxhpPPlMlW6/DXgzeEJ1Wjkhm2yrK0PGilzAptVwo4XzCBob9WFYRqiQw+MGOa8sNCZQcBCZwZBZlyX//39P+Enw1wav/7+W/j5rz//I/wkUqsuTDegx+PcNdWwrRyy6cIMAl5H7yg8otcLj+jMIGChM72DHxgxg4WFzgwCB6FnxAMZJ519G+TkmCwVaCPPTDL6wNwuPmxIs1Qf0ffS2bdmIbQRw4TjptRLF9szJXTbu7yKmLOvfmd5D3e3DY8mNcZkcaaNPDMZdkyWOqg8onuTNbyqFk94cBfF7Tjs0CzQU7GKpZITwyRlRqipfAa7ww5mxrSejCuSH6OkTJ4C93gtxWVrguKYLFgm2o+mzo7ShmmwrPRVorzRlmiDzP7Nac+2wdEgRtoNKcOFLGR7RKmH3ynvqUxXKeWGZXXVIjeqDPcsOnHKJcvRlcsonz1NmTxpV47rm87TtWz5UNosdBunzlVU36w01P5qv3+cLvG/5dToJwdXuLB/c9qzZU5cdRnBZ2G/CHAULIzbkXS+xe+xcZCcGCZ5hO5nlFcUHi6KP1IUo6RMnhXiteSWrQlKxmQht7cw3RomKvzHdAHr+QQm8zUs5KE6nEdh/1bswzNwotAD+GlGRXCJ2zGRoej2G7ihae/2BT49YUPTvgpMF3hsaJzaw8OViVGSS4V4LUVlawL3+qJY7yeRXe99gi/0iRcsmWI7NE+UqHUktRbjspSh/gdGuvPLhJWbwJpGOOk8vCfBjxpawiM7u4cxSjI5qb5qdharaTcUNg5npGXQhZvx06ks9PCmR911+N/hKzWGS9wOOm4WwAinxlcUvJj59/DcRDyykjFKcqkQr+XsnFLf3SOQZWaaZcfXdVzkbcZlOZFSQo9iDuKUSIEow73YqGppy5tLu86Y2vQm7+zpWwoqGe4bhY1LfPkkWnSkjP467thVx0gzKSy3ZSp3ylPXLdEO2m6/r2x+1YZjffMw60bbeEyrR/JLx/6ttQ9rorrpQnFKlnQzE7evC+N2TO7D7zV0nm2gR4OsGCaVwI5xiVHimqdrvJbWcKyvFXXvlECYlpGIXeKy1NqHdYFTDtNBzt01eH2EecaWkLdqibG+KFrnwClSFzNsYqaLMk+n39o3y06EPYw6Cgkt0TUNc4DV7BaeN3t570WQ6bOA+7mxDHmhsNA7yvmF3m/YdGF6h+2BEcd1YXqHU1wXNl26AZsu1bFpmE0XZhCw0JlBkBI6DfdstjB9g0d0ZhAM/mZU/Hr0HkIngQ69fsc3o/Uy8BH9AD+exXPAaevv2DJN4iz0tEOsm6Nvp487/ACh8/i75FXzbpQMZ20mje2BUeoVOdubX+rNttRm/Bamja4fp9MbzrtV864byjOGxVmbsWPTcLHQDa/96Va0cGD5EdkUnT8u8nrX31XNuwEoT6YaNqEXmy7aIZamd/EOm6df0s9xiO36ccrfVbkBElXzPgc206UgDouKmDU2bZ3dTKQxQtjRDXm4rwvxVxqiUOiHjzAIAgriM0R+IlGYi7cPu8HY9eN2L8LFzP/+Vb+CWjXvdkCRh47Q9CrtNu35hCiXtv3zDy1qVW8z6FQgQzl0whOoIVJCH8YDox2I/vbhux7OLwyHOCze1+9C/FrUqt6EmqF60BYODHN50Wa2XBoucVi8r/BdKF1EWZAXh+8Ln8/NC5oq6oK55LZwICX05NKM9ylsTmyrnxCZqFHgIuW9n6S7xx1gJRQRM1uIqnm3gzKp8uKwePBVKB2rFMDhx3N4D/JlsRAXydsH7OS+ZFtcMlarRN6UaqquuqhlOe1c29HjonQWh1/Xc5wByjOGLpsshyxXzJnZhnEcDuT4Keot2k/to/qK5H2lWOhI5tqybh0juKTRYt07jvpdBgo19pm4nOMcUJ4xMoSe3HwfhRzTfiLwp6pH7PjL8vIvwqZhJxudYnmYcTqwsfFOP4i9G6JmffPOvXvHFT/yd8m7E+hlzzjJOCym+ULo9tJRt5AeePkXIgWvsV0NvSHPbOkYlq6JoWaePsRhqZvKI3pfUDdjfRrB+hqHpW4GJPR+vamoTCzTyBJm1haCrplZHSD1PjrTDWiE5q6phs2nYpgPjJjBwXFdmN6hZsL39/fwk+C4Lh2FTZd6YdOF6R3J11gIFjozCFjozCBgoTODgIXuwBBczfpOSujWd3kHTUeeqLYZ7qIHoTZKjOgH2M3ULxKbb8dFDCn2C35R2B7kvLzSaWReK54VWoHW0U1sb36R84F4K05t6bfjMt/j7mHsF5f2wCNlOI3E5hgfhtLGSL6Pfk7azLsmnEb0gLxnp8vQ09wKTm3SOw31EIQPOlAMYofhbZ6i88dFjsPL+2g4L2wPZDeTv5HvYzr9K8sBBE/9cVm7JJyEPlkf4XU9h8knuSPJkGK/IIXtYV4gT5hOH+uB5xknqoHwp+pjsV3GobN08pqNm2uYRv8ctO0c7mZgF2nsgdGQYr84oTzrkZ+Ppo0eF9iphJGA6R10cfVKhLP0yFghEhGD1U/aE5jm5lbeWO7gMXUOTLG5i53j0qlF6P3khHgneuZAQW1MBZkCOxUUKIW7Rnxy9QtNIzTFlvKq3TxEQk6mC7agkuH8BPfbLQTavKJzSJPs7eNiR/UkLPQsaon9gqaLEhCKS5lIYYyVU1Hlw7MuovgW4M0XcVNMzy5GOm8C89coLIaH09vjbTTz0OjfN2oR+pBivzhhOh4rUFzf5EB5VvTskgGtkYeh7XJTXTwpoVd6YKQ7dgMv0gY96BEnihyVCnrZ0ePMtXNztHRGRdEyR29jxaeWQEhGXR4MW+iwepD1kev+tnS0vj+eCdNGXQj+FLZJ06VPYMUK0WvJqS1aV81Mo9efBxD7xaU9alxHzy5HPDqAPZ08jz6vZVNlvbB1dNuzoJTQbYlcOjYU1lQKRH43jbVKoM8Tjy7VvePUBZKhc+f22GI+kYjwbzyhmVMedEwMq9gwj2Xi4ZWP9YlHMELSZTHrHH8ARt8txcOuCxW6DfYwShLarHc4ndNUvm4tbASZXImuYU6AV10S9DH2y9BgD6NC+Ffq+goLPYYH81ex8sAxgPpFpo1uQ9ntnMYOp+leGsUvFPvC3BimL5i6To3otPP6+lr+x7QF98NpJNuPbXRmELDQmUHAQmcGAMD/AWvu8t27PNY6AAAAAElFTkSuQmCC;" vertex="1" parent="1">
          <mxGeometry x="30" y="120" width="152.18" height="90" as="geometry" />
        </mxCell>
        <mxCell id="-NYDk9M5i8-_B_oI9l0L-72" style="edgeStyle=orthogonalEdgeStyle;rounded=0;orthogonalLoop=1;jettySize=auto;html=1;fontColor=#1A1A1A;" edge="1" parent="1" source="-NYDk9M5i8-_B_oI9l0L-64" target="-NYDk9M5i8-_B_oI9l0L-7">
          <mxGeometry relative="1" as="geometry" />
        </mxCell>
        <mxCell id="-NYDk9M5i8-_B_oI9l0L-64" value="" style="shape=image;verticalLabelPosition=bottom;labelBackgroundColor=default;verticalAlign=top;aspect=fixed;imageAspect=0;image=data:image/png,iVBORw0KGgoAAAANSUhEUgAAALYAAABpCAYAAACXmNn+AAAAAXNSR0IArs4c6QAAAARnQU1BAACxjwv8YQUAAAAJcEhZcwAAEnQAABJ0Ad5mH3gAAAzzSURBVHhe7Z07dtu8EoDHdy1SijgroFYg/02qtOmkUm7cuXTnRirtLq0rN5FWIK3ATmFqL7ozeBEAwYf4kChovnMY2ySegyEwRDjDmwPy+fkJt7e3wJwXHod22PL7n/iXYSKDFZuJElZsJkpYsZkoYcVmouTm4+Pj8OPHD/Unw1w2qM/ip9juu7m5AfwhTjDMpWLrMZsiTJSwYjNRworNRAkrNhMlrNhMlLBiMw3Yw2pyI3Yh5ht1KsR+BRNMc3MzgdVenTsRnSn2Zi476h4TmGDPK/t0RgHUJxtMv4/z4Tbaoqj91jFZVY/VhdDzjL2D3esdjM8oMHPDlU4tbdjB6/0YJj0qd/99iI/uFXu2FpvkdKTLmTy3u4fnsjEZLWAr8mxhMVLnBkyyTFUfU1ibLj7DsNVuBIutHBc6dLvt8TpsF5gqDnqdsUeLn6DlJ9nAXC15m81cmR9z2HimSNEMtV9NnPN7KsNbXidzvTrIpffuVfwBgCuHX+Z+pdug89YwmxxGMP3p9lCTbxuZLHb5BXYq5hPpxSp3ij7kKZerx9cGVnM1LmXpLPpocw68U+n/IOlHK3AGEOXgDKDOpIf1MpHnIDksUzq3PqAaqHP6mB3W6fKQ2OnWs+waZROkh2Ui88gqQmWpQyTI0uevWe31j2SJOUNk5eGMnZ3T5Vj5UtPvwGHJx+2PQvddlNd1HzLy46WpkitR0C596HT+uCJt2lwFlaPpXrFDhxGIJTQ8ZzqSE0CWLsuaV/Z0jWVY0kDTR6axhBQcwIDAsTBVp3XOoWww7TxZ27MbgKr0b/I6iq1PyXTt+5BRrNhUTJVcLVngubVKm+uj38aWba6C6tb0+/CYJCg3tEdfpuqEJoHlw7TEnpuCXuFf3+Wyu3lX6/HsJ16VjMYAz7+zZXB8r9fsCtJ/+MhH7OB+rJbE8R3I3Dv4l4pfakJ9tJ4NNu+qnBk8Wg8Mo8WjMsuOLb+ATvvgcoxcZ48LmKpuVvaxxzb79PrweNhu4UX3+kiM7frxBXu0wZ9E7+UNISC7nISyk6I6JfrhEWco/GuHpu+QtymP5Ixy7ZKet/taMFUPnrs3eH5+k3d68gv+0/eJvvuTGeBiqhRN3QxVjL/jLULgjZKqm9A6cgtMAaPFHxC6TTOQ3vYxZb/Ck6Xt+9WTmcl/euXTqiRS7vFBTN7B1XTUhxxHyvX1aYUP//TbHjYlfRT01eYQWKBjmzSlzGbLKLCnQrYX4tvtts2a5Qkcln2ae5BT7fPLzg77gdUmsyuddhjbP2t7cdlFdnfg6KUPGYXjVUuuPTw81mhzFVSOZrgzNuJupbk2K+19/0EpyRmAQFt3uVQ2XoaYVWdWqu9oQCLTF9qDTqz8DZk+5GZtUTbOck7Z6nlj69jdf0QbDDRLpuvT98Gmplwlqr1OF9aQlky9vbQ5AHvQMNFg6/GgZ2yGaQorNhMlrNhMlLBiM1HCcUWYqOC4IgOEx6EdvCvCRA8rNhMlrNhMlLBiM1HCis1ECSs2EyUFil0Qg2LiO6T2yDlijZyjzkKuKw5I1xw3Y+8ohsYdjDse+HPEzeBYHd0yNHlWKrZ2g6IjNe/p7uD+d8+zxTlijQwqvsl1xQHpHBQQ/VcN/bAo8BYhAh4jBHkyo9Kra5hvZnmhI+l6eUiM10VymAnX5gJPDPLAyHlf6LSzw5o8m618ySzzNiHwBrTq8tMcU6ckXx62f2n3r37byqD0RRjPE9/jBSnvL6E8l8ijnNKKNMpjxWtvdtQd3xJ5nhiqV3O8Ymsh4aHbboTuH9qVKOhuRII9RskK0urDCDJrXzjNMXXSqRL3LVNn3baVQ2mLKFbsqv4WpSH56/PyRl07ypvJoHx8S+R5YqheTYNdkTF8x94bbA9y7aCp3Zt2b/CX7BXfQRSvozAQudzmltkqr07hQkV1ZSHGhDe7+GUKD+s1pJazqHFGFWmOqXMDz/fSW9sxyWTjyZM1/6xR2rY+qOqvB7luiXQvMN1/gXhlaPYIL4spTBcv8KiympASlePbcAx7poFip/BPjrWkTqwI43H+Cnd4ffL7Hb79QcHSuQbMHjGvMC7DIcYaxxvxaRAjpKptfVC/v6icdjyX0TcQ73XiDUq7XZvV3CixcqusN74D5HjFNoNtdb6SKbzQDKYcXHek4OOettQiiYtRm1b91auv3O26wxtihyvOMr2M4KBlHKXYIlihjpCoY3zUiRVB+eYpjHGp26KCy5V8B2/CTumYNvFGfBrECDk5bfq7eQaytGwz67B9cZX6lLFAOqRSsXf342yJQ6WW8wIKUW81jRbKLrOWKnPMTWhdESdbnBsLYRI/vkkJjrXRHogmejR6IJTZI9odWJpr1Wn65snB2N0Pjc2pzqjZ3zLsvtExmVAEXHWx5vh2OoYdcJwpklCMCXr4cO3jylgR0wdx3UDlrFNztxfFzWgEDkSbeCM+dWOEnI2a/Q2in308pKmYKW2dWCCdjmEX4HLibJMw5+PU44D3g6jT2dL197kvCFt+DXZFmNhwTBFtblpRbS8RVuwrhkwMMh9cE0OZm0N9KqwJO/MOCB6Hdtjy4xmbiRKOK8JEBccVGSA8Du1gU4SJHlZsJkpYsZkoYcVmouQqFdv/dDUTH1eo2Hv4+6beUTz7O6dMX5Qqdv5j7vU80wedb/8XpF6771I3rbtvTFgDapPvmbGZy2uhlcfESKEje1NPcgUxS2gfW/1w0G9+5Q7r+4Mhhp7PpLecTZvW3TVUp4/bNu+Nu7WKGBBwnPWdkF2n7ArnYzpO3PcuoHZrwopteZXLMAl4SgvRc8t3GHy+zCvbXGtadw9QnT5asZNEKqr/iqloZ06xteLODsvcB/7zhG72S4T6oAmbIsaBk5Zr+TL9yLyUXuLAOfR82l8z9OnqY+s+MT8epQPx7v7ZMysCaHMr+Q7/LVRfdMSAKyGo2Psv+f/tJJjMDyILu/DxFZbQ0PNt3qXLVPLrP+Op3bTu0zOFB+Es6vpfhtj/ld+el/2cgnSW78nHdKBc0a7IBqReJ/DLTNeXhQ77UD5r61goWT91GIjd29/LfiA8gutR7JAZcnHUmLVD/TQOv/egPvcePUHFHn1Tr7Hu/kFmYmaBcrR3uc9w8+1hJSPBOGYI0bTucyGcZlFLi2ZtbW6REsuoAHiM79VzBN4S79eh2eEZ24qn8a788PeBQDl6j9Xsrw40n713bUd0EtQtYzCMYCHiIeCs/aSeDwza3Crh9b3EjIkI2hpRPxwK93bNlpC1F1pnT/hs+TCn3tO1ztnUKeMUUJ0+um1uU7x9aH1Rb/+FtvacbU11TmH6f+L+dg31QVOo2EJ4M3uTnyJy2uJKjUBym/8Dy6eVoHjcqso4DVS3T1ixEUtRtUKG5aPJ5OArsM4Xk2LH70EjYtuRjUkhwNxAP0Mj6nE4Abb8ot8V0Xu6lx4ngzmOyBWb3+S7VtiZd0DwOLTjqkwR5jrhuCJMVHBckQHC49AONkWY6GHFZqKEFZuJElZsJkpYsQvg2COXDSt2kIH8j6UJodDTNzHLOGfdHVCh2HvYzPUXX/3YFJJrij2CFyrlAfsNrEwaVdeKZ/2TQ/vY6ocDhSAwr0WKI/8VKfO6o39UxKQYer7Qa5x15IE5wx/sr2ifhtI6mFdTTxsGQnDOuhtiy69wxk7JFWO2FN84DIJLlfK2wvGXX3bFwZcnylz9B58vc/pdPmTTdaU8kM1cfWM8wXTmK7YppH9cdzTmBKDw8zOFjQkeUxCFyDmfzViF76wPPZ9OXzTLBssjdJnNZzgq16Fg1hSrh+1BIxwj1rn2pkt7lcE0KiAQkS8DDsnM6nOsM3YV1xR7pBb7L1A1wb9n28aewFz5UnYB7daIT3/LZ1uF/Mj/2NrBEenoo//qb5Hm7rd6ENzAc64MTPF675RxyfCuiEOL2CMmohQq0KutMbZCtUXHDMEWWh/2T5fqLn19yhTXT5euhXe7ZAoP6zWk1kf/cXaXlz6+aj2MDx1WbBvtnd4q9gja5lphUJmkunQUhcl4z7ve9jqQDtUjQrKZ1cNKN5rCYrsF8ycuX8+/s5WFZveYaKzY1xR7pBYmjIMFKpMKwnRazOpRAO1Rj/FB17dFIqL5jD3QGCK9xB6pw+gbyFvImp2tHZlOAu9YfbEjQe1XT6o/at89lI721ydzaapoxU/IwdkzRWIBO+U8TWrMXm7uyJ6SC9OYrYawy//w8tEmgAq/YJ2zaSWPDvexi9vhhl0Ip1PlmHIDh27rhe+KtFJsoUhXEnukrjzWWE+mNPg7FmjXVAblcQgqF9bhbOPhkbhbeZJ8W+w+i+0+59pSbldGotjsQUMIm/P8sUeufhxaYsuPd0UQjj0SH6zYwLFHYoRNkQHB49AONkWY6OG4IkxUOHFFPj8/4fb2VpxgzgePQzts+bEpwkQIwP8Bt0RYhnYuzgkAAAAASUVORK5CYII=;" vertex="1" parent="1">
          <mxGeometry x="530" y="-40" width="130" height="75" as="geometry" />
        </mxCell>
      </root>
    </mxGraphModel>
  </diagram>
</mxfile>
